<?xml version="1.0" encoding="UTF-8" standalone="no"?>
<!DOCTYPE svg PUBLIC "-//W3C//DTD SVG 1.1//EN" "http://www.w3.org/Graphics/SVG/1.1/DTD/svg11.dtd">
<svg width="100%" height="100%" viewBox="0 0 1024 1024" version="1.1" xmlns="http://www.w3.org/2000/svg" xmlns:xlink="http://www.w3.org/1999/xlink" xml:space="preserve" xmlns:serif="http://www.serif.com/" style="fill-rule:evenodd;clip-rule:evenodd;stroke-linejoin:round;stroke-miterlimit:2;">
    <g id="_1---Layer" serif:id="1 – Layer">
        <g>
            <path id="D" d="M837.416,311.327C838.824,308.87 839.995,306.262 841.638,303.956C843.115,301.884 851.545,290.061 868.569,287.031C876.857,285.556 883.599,287.046 884.873,287.327C884.881,287.329 892.934,289.97 892.937,289.972C895.395,291.377 898.004,292.546 900.31,294.188C902.383,295.664 914.21,304.084 917.239,321.113C918.713,329.402 917.221,336.149 916.939,337.423C915.85,342.35 915.717,342.32 913.653,346.926C830.56,532.313 684.547,549.459 595.751,529.896C583.283,527.149 575.533,524.422 574.381,524.019C570.204,522.559 567.004,520.627 566.399,520.262C564.221,518.948 551.789,511.443 547.482,494.696C545.385,486.542 546.362,479.702 546.546,478.41C546.549,478.393 548.575,470.161 548.579,470.153C549.775,467.648 550.727,465.01 552.169,462.638C553.485,460.474 560.897,448.284 577.676,443.887C585.846,441.747 592.722,442.62 594.022,442.785C600.679,443.63 600.527,444.305 607.003,446.064C619.253,449.391 655.495,457.212 697.26,446.879C776.213,427.344 816.825,357.447 837.416,311.327Z"/>
        </g>
    </g>
    <g id="C" transform="matrix(1,0,0,1,12.0646,89.2783)">
        <g id="_2---Layer" serif:id="2 – Layer">
            <path id="C1" serif:id="C" d="M347.55,-1.826C350.322,-2.403 353.05,-3.257 355.865,-3.556C358.395,-3.825 372.833,-5.361 386.388,5.381C392.986,10.611 396.342,16.651 396.975,17.792C399.457,22.259 399.321,22.33 400.854,27.21C482.532,287.208 393.39,455.776 376.543,482.634C374.198,486.372 371.614,489.057 371.126,489.564C369.362,491.397 359.291,501.859 342.006,502.352C333.59,502.591 327.136,500.124 325.917,499.658C325.901,499.652 318.321,495.854 318.315,495.849C316.142,494.131 313.787,492.622 311.798,490.694C299.763,479.024 299.265,464.211 299.18,461.681C298.896,453.237 301.257,446.718 301.704,445.485C303.848,439.564 304.338,439.793 307.392,434.288C314.628,421.245 338.977,372.638 347.615,294.891C359.33,189.459 334.838,97.603 320.129,50.947C314.916,34.41 321.778,21.197 322.963,18.913C328.833,7.61 338.067,2.479 339.757,1.54C339.765,1.536 347.546,-1.825 347.55,-1.826Z"/>
        </g>
    </g>
    <g id="_3---Layer" serif:id="3 – Layer">
        <path id="B" d="M219.802,258.328C219.725,258.112 219.722,258.1 219.802,258.328ZM543.71,626.546C548.238,629.633 553.577,631.42 558.082,634.543C560.312,636.088 562.034,638.288 563.717,640.415C574.455,653.979 572.933,668.384 572.666,670.913C572.665,670.93 570.944,679.209 570.94,679.217C569.82,681.813 568.95,684.532 567.577,687.004C566.342,689.229 559.292,701.924 542.711,706.834C534.638,709.224 527.767,708.495 526.469,708.357C525.632,708.269 521.687,707.85 516.218,705.989C473.316,691.386 250.405,596.182 141.144,288.231C139.373,283.238 139.185,283.269 138.455,278.019C138.105,275.499 136.107,261.116 146.406,247.225C151.42,240.461 157.349,236.913 158.469,236.243C158.484,236.234 166.155,232.625 166.163,232.623C168.91,231.958 171.605,231.019 174.405,230.631C176.924,230.281 191.3,228.286 205.194,238.583C211.959,243.597 215.51,249.525 216.181,250.645C218.395,254.341 220.028,258.968 219.802,258.328C220.34,259.838 224.449,271.368 228.154,280.957C250.557,338.937 305.539,462.518 425.41,557.347C484.276,603.916 532.994,622.851 543.73,626.484L543.71,626.546ZM543.625,626.488L543.636,626.454L543.522,626.418C543.556,626.441 543.59,626.465 543.625,626.488Z"/>
    </g>
    <g id="_4---Layer" serif:id="4 – Layer">
        <g id="Base" transform="matrix(1,0,0,1,0,61.8333)">
            <path d="M698.547,833.724C698.262,836.541 698.255,839.4 697.692,842.174C697.433,843.453 696.061,850.223 691.349,857.204C681.675,871.537 667.447,874.438 664.954,874.946C662.183,875.511 659.342,875.799 656.514,875.809C559.976,876.135 463.436,875.906 366.897,875.954C349.545,875.963 339.004,865.432 337.183,863.613C328.172,854.612 326.061,844.256 325.675,842.362C325.672,842.345 324.811,833.911 324.812,833.902C325.096,831.089 325.104,828.234 325.666,825.462C325.926,824.183 327.299,817.412 332.009,810.433C341.684,796.1 355.912,793.199 358.405,792.691C361.176,792.126 364.016,791.838 366.844,791.828C463.383,791.501 559.923,791.731 656.462,791.682C673.813,791.673 684.355,802.204 686.176,804.023C695.186,813.025 697.298,823.381 697.684,825.275C697.685,825.283 698.547,833.72 698.547,833.724Z"/>
        </g>
        <path id="A" d="M640.442,80.548C643.258,80.834 646.117,80.843 648.891,81.407C651.385,81.914 665.613,84.805 675.296,99.136C680.009,106.112 681.386,112.883 681.646,114.162C682.754,119.61 682.51,119.648 682.503,125.21C682.183,403.216 629.932,482.081 592.389,598.113C570.737,665.029 553.841,746.801 553.661,893.297C553.654,898.735 553.884,898.772 552.799,904.101C552.291,906.595 549.393,920.825 535.067,930.506C528.091,935.219 521.322,936.596 520.044,936.856C520.027,936.86 511.595,937.716 511.586,937.715C508.773,937.429 505.918,937.42 503.147,936.856C500.654,936.349 486.424,933.456 476.742,919.127C472.029,912.151 470.652,905.38 470.392,904.101C469.298,898.72 469.528,898.683 469.535,893.194C469.893,599.827 535.055,542.482 571.652,394.566C586.871,333.056 598.23,252.217 598.377,125.113C598.383,119.6 598.14,119.562 599.239,114.162C599.747,111.669 602.644,97.439 616.971,87.757C623.947,83.044 630.716,81.667 631.994,81.407C632.003,81.405 640.437,80.548 640.442,80.548Z"/>
    </g>
</svg>
